<?xml version="1.0" standalone="no"?><!DOCTYPE svg PUBLIC "-//W3C//DTD SVG 1.1//EN" "http://www.w3.org/Graphics/SVG/1.1/DTD/svg11.dtd"><svg t="1722480774176" class="icon" viewBox="0 0 1024 1024" version="1.1" xmlns="http://www.w3.org/2000/svg" p-id="18401" xmlns:xlink="http://www.w3.org/1999/xlink" width="200" height="200"><path d="M511.942407 0A511.942407 511.942407 0 0 0 0 511.942407 512 512 0 1 0 512.057593 0z m0 941.75748a429.815073 429.815073 0 1 1-0.345557-859.630146h0.345557a429.815073 429.815073 0 1 1 0 859.630146z m49.069067-407.987401a103.667042 103.667042 0 0 1-23.785827-56.095388L522.366704 197.485714c-0.979078-17.796175-13.995051-32.309561-28.7964-32.309561s-27.990101 14.513386-28.796401 32.309561L449.223847 482.570079a361.106862 361.106862 0 0 0 0.633521 50.681665c1.43982 10.021147 13.36153 27.932508 26.665467 39.854218l213.093363 189.653093a31.100112 31.100112 0 1 0 43.424972-44.519235z" fill="#666666" p-id="18402"></path></svg>