<?xml version="1.0" standalone="no"?><!DOCTYPE svg PUBLIC "-//W3C//DTD SVG 1.1//EN" "http://www.w3.org/Graphics/SVG/1.1/DTD/svg11.dtd"><svg t="1722493540857" class="icon" viewBox="0 0 1024 1024" version="1.1" xmlns="http://www.w3.org/2000/svg" p-id="17405" xmlns:xlink="http://www.w3.org/1999/xlink" width="200" height="200"><path d="M923.936 613.68a36.16 36.16 0 0 1-36.08-36.944V137.888h-667.36a36.944 36.944 0 0 1 0-73.888h703.424A36.16 36.16 0 0 1 960 100.944v475.792a36.624 36.624 0 0 1-36.064 36.944z" fill="#2c2c2c" p-id="17406"></path><path d="M255.232 960a34.608 34.608 0 0 1-25.856-11.104 36.8 36.8 0 0 1 0-52.592l219.552-219.776a37.568 37.568 0 0 1 25.856-11.104h273.36V266.176H137.888v399.232h99.008a37.04 37.04 0 0 1 0 74.064h-136A36.624 36.624 0 0 1 64 702.512V229.152a36.624 36.624 0 0 1 36.944-37.04h684.88a36.224 36.224 0 0 1 26.592 11.104 34.096 34.096 0 0 1 10.336 26.672l-1.472 473.296a37.44 37.44 0 0 1-36.944 36.288H490.304L281.84 948.144a36.56 36.56 0 0 1-26.608 11.856z" fill="#2c2c2c" p-id="17407"></path></svg>