<?xml version="1.0" standalone="no"?><!DOCTYPE svg PUBLIC "-//W3C//DTD SVG 1.1//EN" "http://www.w3.org/Graphics/SVG/1.1/DTD/svg11.dtd"><svg t="1722583678803" class="icon" viewBox="0 0 1024 1024" version="1.1" xmlns="http://www.w3.org/2000/svg" p-id="4294" width="200" height="200" xmlns:xlink="http://www.w3.org/1999/xlink"><path d="M541.55 600.12v46.32h94.09c16.3 0 29.52 13.22 29.52 29.54s-13.22 29.54-29.52 29.54h-94.09v81.51c0 16.32-13.22 29.54-29.52 29.54-16.3 0-29.52-13.22-29.52-29.54v-81.51h-94.09c-16.3 0-29.52-13.22-29.52-29.54s13.22-29.54 29.52-29.54h94.09v-46.32h-94.09c-16.3 0-29.52-13.22-29.52-29.54s13.22-29.54 29.52-29.54h51.94l-72.8-72.79c-11.54-11.54-11.54-30.24 0-41.78 11.44-11.54 30.19-11.54 41.73 0l102.74 102.72 102.74-102.72c11.54-11.54 30.29-11.54 41.73 0 11.54 11.54 11.54 30.24 0 41.78l-72.8 72.79h51.94c16.3 0 29.52 13.22 29.52 29.54s-13.22 29.54-29.52 29.54h-94.09z m120.62 359.52c92.31-2.28 175.91-47.76 223.46-121.51 67.98-103.87 60.82-247.88 18.61-336.39-65.24-138-238.51-233.89-257.98-244.32-7.21-3.89-15.38-5.96-23.7-5.96H401.4c-8.51 0-16.92 2.21-24.04 6.23-45.05 24.78-196.68 115.6-258.17 244.4-41.54 88.87-48.51 232.98 18.61 336.37C185.4 912.06 268.81 957.5 360.92 960l0.43 0.02 300.82-0.38z m188.7-432.57c35.14 73.68 41.39 193.07-14.76 278.87-37.07 57.48-102.64 92.86-174.71 94.64l-299.28 0.34c-72.5-2.09-137.79-37.4-174.76-94.59-55.38-85.38-49.28-205.09-14.71-279.04C226.4 414.65 364.72 332.07 401.4 310.54l216.87-1.11c17.79 9.54 175.39 96.66 232.6 217.64zM617.51 226.09l85.05-83.51c14.62-12.07 19.9-31.39 13.51-49.23-6.4-17.81-22.8-29.35-41.74-29.35H347.94C329 64 312.6 75.54 306.21 93.35c-6.39 17.84-1.11 37.16 11.63 47.55l88.75 86.85a44.464 44.464 0 0 0 28.27 10.17h152.55c10.29 0 20.34-3.61 30.1-11.83z m-233.56-103h254.28l-56.78 55.74H440.97l-57.02-55.74z m278.27-23.54c0.29-0.34 0.58-0.62 0.87-0.87l-0.87 0.87zM359 98.66L357.32 97c0.62 0.51 1.2 1.06 1.68 1.66z" p-id="4295" fill="#2c2c2c"></path></svg>