<?xml version="1.0" standalone="no"?><!DOCTYPE svg PUBLIC "-//W3C//DTD SVG 1.1//EN" "http://www.w3.org/Graphics/SVG/1.1/DTD/svg11.dtd"><svg t="1722495057978" class="icon" viewBox="0 0 1035 1024" version="1.1" xmlns="http://www.w3.org/2000/svg" p-id="29323" xmlns:xlink="http://www.w3.org/1999/xlink" width="202.1484375" height="200"><path d="M601.550657 512.350406V85.721606c0-8.201805-0.194924-16.493575 1.079579-24.575426 7.407114-46.481892 40.679153-70.067704 86.726215-57.997407 68.388358 17.91802 136.17695 38.175128 204.130477 57.742506 28.054071 8.066857 56.438014 15.443984 83.682401 25.744971 44.187786 16.703493 58.132354 38.415035 58.147347 85.151827q0.104959 343.456201 0.269895 686.912403c0 37.740298-17.1983 63.485268-51.190058 75.990397-37.875245 13.929574-76.965017 24.725368-115.709923 36.225887-53.574129 15.818838-107.343183 30.947944-161.05226 46.331951-5.412891 1.499416-10.900753 2.893873-16.40361 4.123394-51.69986 11.545502-88.22563-15.608919-89.125279-68.5383-1.199533-70.307611-0.509801-140.660204-0.554784-210.982809v-229.410629z m39.47962-0.704725v76.995005c0 118.049012-0.209918 236.113019 0.194924 354.162031 0.134947 37.590356 13.899585 47.636442 50.530315 38.370052 19.357459-4.90309 38.505-10.645853 57.697523-16.22368 70.8474-20.601974 141.79976-40.844089 212.422248-62.165782 27.514281-8.306764 34.1417-18.802675 34.141699-45.657214V179.615028c0-42.433469-4.168376-49.330782-44.607622-61.356098q-127.45035-37.920228-255.410501-73.996173c-41.548814-11.695444-54.818645-0.869661-54.863627 42.433469q-0.239907 212.437242-0.104959 424.93446zM71.537132 530.583303l147.077703 148.442172-27.664223 27.9791L0 512.72526l192.105162-191.925233 27.559264 25.580035-147.167668 144.858568h370.02585v39.344673z" fill="" p-id="29324"></path><path d="M521.481849 78.104573V117.854088h-104.839159c-37.485397 0-51.999743 14.454369-51.969754 51.87979v242.740436h-38.984813c-0.284889-4.663183-0.779696-9.131443-0.779696-13.599702q-0.074971-117.749129 0-235.498258c0-53.079322 32.26743-85.166822 85.466705-85.241793 36.405818-0.074971 72.781647-0.029988 111.106717-0.029988zM521.466855 906.666794v38.430029c-43.692979 0-86.816179 2.504025-129.50455-0.764702-36.870636-2.818902-64.78976-31.487733-65.674415-68.403353-2.114176-87.655852-0.674737-175.431658-0.674738-264.092118h39.059784v247.04376c0 30.947944 16.493575 47.666431 47.216606 47.741401 35.970987 0.119953 71.881997 0.044982 109.577313 0.044983zM720.244418 536.88085c-13.044918 0.239907-24.815333-11.125666-25.010257-24.15559a25.31014 25.31014 0 0 1 24.080619-25.100222c13.494743-0.314877 24.215566 10.226016 24.515449 24.140596a24.185578 24.185578 0 0 1-23.585811 25.115216z" fill="" p-id="29325"></path></svg>