<?xml version="1.0" standalone="no"?><!DOCTYPE svg PUBLIC "-//W3C//DTD SVG 1.1//EN" "http://www.w3.org/Graphics/SVG/1.1/DTD/svg11.dtd"><svg t="1722494137608" class="icon" viewBox="0 0 1024 1024" version="1.1" xmlns="http://www.w3.org/2000/svg" p-id="20692" xmlns:xlink="http://www.w3.org/1999/xlink" width="200" height="200"><path d="M832 1024H192a64 64 0 0 1-64-64V448a64 64 0 0 1 64-64h64V256a256 256 0 0 1 512 0v128h64a64 64 0 0 1 64 64v512a64 64 0 0 1-64 64zM512 128a128 128 0 0 0-128 128v128h256V256a128 128 0 0 0-128-128z m256 384H256v384h512V512z m-320 128h128a64 64 0 0 1 0 128H448a64 64 0 0 1 0-128z" fill="#2c2c2c" p-id="20693"></path></svg>