<?xml version="1.0" standalone="no"?><!DOCTYPE svg PUBLIC "-//W3C//DTD SVG 1.1//EN" "http://www.w3.org/Graphics/SVG/1.1/DTD/svg11.dtd"><svg t="1722497401911" class="icon" viewBox="0 0 1024 1024" version="1.1" xmlns="http://www.w3.org/2000/svg" p-id="30386" xmlns:xlink="http://www.w3.org/1999/xlink" width="200" height="200"><path d="M653.777455 57.856l-11.217455 37.981091c0 5.445818-5.678545 21.690182-5.678545 21.690182s-16.942545 5.445818-22.574546 10.891636l-39.517091 16.290909c-11.217455 5.399273-11.217455 10.798545 0 16.244364l39.563637 21.690182c5.585455 0 22.528 10.798545 22.528 10.798545v21.736727l5.678545 37.981091c0 10.845091 5.585455 16.244364 16.896 5.399273l33.792-27.089455c5.632 0 16.942545-10.891636 16.942545-10.891636s16.849455 0 22.481455 5.492364l45.056 5.352727c11.357091 5.445818 16.942545-5.352727 11.357091-16.244364l-16.896-32.535272c-5.678545-5.445818-11.310545-21.690182-11.310546-21.690182s5.632-10.845091 11.310546-16.290909l22.481454-37.981091c5.678545-10.845091 0-16.244364-11.217454-16.244364l-45.102546 5.399273c-5.678545 0-22.574545 5.445818-22.574545 5.445818l-16.896-16.290909-28.206545-32.535273c-2.141091-4.142545-5.12-5.911273-7.959273-5.911272-4.654545 0-8.936727 4.654545-8.936727 11.310545z m-224.023273-2.234182C204.148364 106.961455 46.545455 293.189818 46.545455 508.369455 46.545455 767.069091 274.525091 977.454545 554.682182 977.454545c130.932364 0 256.093091-44.776727 352.581818-125.952a27.601455 27.601455 0 0 0 7.400727-32.34909 27.973818 27.973818 0 0 0-29.044363-16.104728c-36.491636 4.980364-78.661818 10.146909-114.967273 10.146909-249.669818 0-452.747636-185.716364-452.747636-413.882181A386.699636 386.699636 0 0 1 453.818182 103.563636a27.694545 27.694545 0 1 0-17.92-48.686545 27.461818 27.461818 0 0 0-6.190546 0.744727zM101.934545 508.369455c0-156.113455 95.138909-295.098182 240.919273-364.590546a443.857455 443.857455 0 0 0-80.384 255.534546c0 258.699636 227.933091 469.085091 508.183273 469.08509l11.869091-0.139636a501.015273 501.015273 0 0 1-227.84 53.992727c-249.623273 0-452.747636-185.716364-452.747637-413.882181z m782.941091-206.429091l-5.632 27.136v10.798545s-11.264 5.445818-16.896 5.445818l-22.574545 10.891637c-5.585455 5.445818-5.585455 10.798545 0 10.798545l22.574545 10.845091 11.217455 10.891636s5.678545 5.399273 5.678545 10.845091v27.136c0 5.445818 5.632 5.445818 11.310546 0l22.574545-16.290909 11.264-5.445818h11.264l28.16 5.399273c5.678545 5.492364 11.310545 0 5.678546-5.399273l-11.310546-27.136-5.632-10.845091 11.264-10.798545 11.310546-21.736728c5.632-5.399273 0-10.845091-5.585455-10.845091l-28.253091 5.445819h-16.896s-5.678545-5.445818-5.678545-10.845091l-16.896-16.290909c-2.792727-2.746182-5.632-4.096-8.424727-4.096-2.839273 0-5.678545 1.396364-8.517819 4.096z m-225.512727 157.323636l-5.585454 27.089455c0 5.492364-5.678545 10.891636-5.678546 10.891636l-11.264 5.399273-28.16 10.845091c-5.632 5.399273-5.632 10.845091 0 10.84509l22.528 16.29091c5.632 0 16.896 5.445818 16.896 5.445818v37.934545c5.678545 5.399273 11.264 5.399273 16.942546 5.399273l16.896-21.643636c5.678545 0 11.217455-5.445818 11.217454-5.445819h16.989091l22.528 5.445819c11.310545 5.399273 11.310545 0 11.310545-5.445819l-11.310545-21.643636c-5.585455-5.492364-5.585455-16.337455-5.585455-16.337455s5.585455-5.445818 5.585455-10.84509l11.310545-21.643637c5.632-5.445818 5.632-10.891636-5.72509-10.891636l-28.113455 5.445818h-11.264s-5.725091-5.445818-11.264-10.891636l-16.942545-16.290909c-2.792727-2.699636-5.632-4.049455-7.773091-4.049455-2.141091 0-3.537455 1.349818-3.537455 4.049455z" fill="#2c2c2c" p-id="30387"></path></svg>