<?xml version="1.0" standalone="no"?><!DOCTYPE svg PUBLIC "-//W3C//DTD SVG 1.1//EN" "http://www.w3.org/Graphics/SVG/1.1/DTD/svg11.dtd"><svg t="1722583758342" class="icon" viewBox="0 0 1024 1024" version="1.1" xmlns="http://www.w3.org/2000/svg" p-id="6449" xmlns:xlink="http://www.w3.org/1999/xlink" width="200" height="200"><path d="M209.454545 488.727273V558.545455h605.09091v-69.818182h-605.09091z m-23.272727-46.545455h651.636364a23.272727 23.272727 0 0 1 23.272727 23.272727v116.363637a23.272727 23.272727 0 0 1-23.272727 23.272727H186.181818a23.272727 23.272727 0 0 1-23.272727-23.272727V465.454545a23.272727 23.272727 0 0 1 23.272727-23.272727z" fill="#1E2D3B" p-id="6450"></path><path d="M721.454545 455.586909a23.272727 23.272727 0 0 1 23.272728 23.272727V558.545455a23.272727 23.272727 0 1 1-46.545455 0v-79.685819a23.272727 23.272727 0 0 1 23.272727-23.272727z" fill="#1E2D3B" p-id="6451"></path><path d="M512 1000.727273C242.082909 1000.727273 23.272727 781.917091 23.272727 512S242.082909 23.272727 512 23.272727 1000.727273 242.082909 1000.727273 512 781.917091 1000.727273 512 1000.727273z m0-46.545455a442.181818 442.181818 0 1 0 0-884.363636 442.181818 442.181818 0 0 0 0 884.363636z" fill="#1E2D3B" p-id="6452"></path><path d="M199.307636 861.230545l-32.907636-32.907636L824.692364 170.077091l32.907636 32.907636z" fill="#1E2D3B" p-id="6453"></path></svg>