<?xml version="1.0" standalone="no"?><!DOCTYPE svg PUBLIC "-//W3C//DTD SVG 1.1//EN" "http://www.w3.org/Graphics/SVG/1.1/DTD/svg11.dtd"><svg t="1722494122697" class="icon" viewBox="0 0 1024 1024" version="1.1" xmlns="http://www.w3.org/2000/svg" p-id="19482" xmlns:xlink="http://www.w3.org/1999/xlink" width="200" height="200"><path d="M735.1 421.9c-5.1 0-9.9 1.3-14.9 1.5-2.6-0.3-4.8-1.5-7.5-1.5H556.1V220.5c0-37.1-30-67.1-67.1-67.1-37.1 0-67.1 30.1-67.1 67.1v268.6c0 33.9 25.5 60.8 58.2 65.3-36.3 51.2-58.2 113.3-58.2 180.8 0 87.7 36.2 166.7 94.2 223.6-1.6 0-3.1 0.2-4.7 0.2-247.2 0-447.6-200.4-447.6-447.6S264.1 63.9 511.3 63.9s447.6 200.4 447.6 447.6c0 1.6-0.2 3.1-0.2 4.7-56.9-58.1-135.9-94.3-223.6-94.3z m0 89.6c123.6 0 223.8 100.2 223.8 223.8S858.7 959.1 735.1 959.1 511.3 858.9 511.3 735.3s100.2-223.8 223.8-223.8zM600.9 780h89.5v89.5h89.5V780h89.5v-89.5h-89.5V601h-89.5v89.5h-89.5V780z" fill="#070102" p-id="19483"></path></svg>