<?xml version="1.0" standalone="no"?><!DOCTYPE svg PUBLIC "-//W3C//DTD SVG 1.1//EN" "http://www.w3.org/Graphics/SVG/1.1/DTD/svg11.dtd"><svg t="1722494994192" class="icon" viewBox="0 0 1024 1024" version="1.1" xmlns="http://www.w3.org/2000/svg" p-id="27152" xmlns:xlink="http://www.w3.org/1999/xlink" width="200" height="200"><path d="M663.591 596.345C795.79 617.073 897 731.653 897 870h80c0-149.114-91.314-276.93-221.053-330.333C805.358 500.083 837 439.236 837 371c0-119.294-96.707-216-216-216-22.276 0-43.764 3.372-63.982 9.633C520.482 140.831 476.856 127 430 127c-128.682 0-233 104.318-233 233 0 74.616 35.074 141.041 89.635 183.685C146.698 600.312 48 737.643 48 898h80c0-166.845 135.041-302 301.5-302S731 731.155 731 898h80c0-122.606-57.697-231.751-147.409-301.655zM430 513c-84.5 0-153-68.5-153-153s68.5-153 153-153 153 68.5 153 153-68.5 153-153 153z m196.742-277.881C699.189 238.128 757 297.813 757 371c0 75.111-60.89 136-136 136-3.338 0-6.648-0.12-9.925-0.357C643.545 466.599 663 415.571 663 360c0-45.946-13.299-88.786-36.258-124.881z" fill="#2c2c2c" p-id="27153"></path></svg>