<?xml version="1.0" standalone="no"?><!DOCTYPE svg PUBLIC "-//W3C//DTD SVG 1.1//EN" "http://www.w3.org/Graphics/SVG/1.1/DTD/svg11.dtd"><svg t="1722478681523" class="icon" viewBox="0 0 1024 1024" version="1.1" xmlns="http://www.w3.org/2000/svg" p-id="5831" xmlns:xlink="http://www.w3.org/1999/xlink" width="200" height="200"><path d="M525.7216 191.0784L20.48 188.2112l75.1616 644.7104 505.2416 2.8672z m-227.1232 491.52H183.0912L132.3008 342.4256h272.384l56.9344 38.5024L491.52 573.44H286.72z" p-id="5832"></path><path d="M257.2288 404.48l15.9744 107.3152h103.2192l-15.9744-107.3152h-103.2192zM527.9744 835.1744h8.3968l-8.3968-0.2048v0.2048zM574.464 191.0784l74.9568 643.4816 278.9376-1.6384L1003.52 188.2112z m289.3824 488.6528L747.52 532.48l14.7456 150.528h-77.2096l-33.3824-341.6064h77.2096l12.6976 129.6384 76.1856-119.6032h87.2448l-94.4128 149.0944 106.496 134.3488h22.9376l-6.3488 45.4656z" p-id="5833"></path></svg>