<?xml version="1.0" standalone="no"?><!DOCTYPE svg PUBLIC "-//W3C//DTD SVG 1.1//EN" "http://www.w3.org/Graphics/SVG/1.1/DTD/svg11.dtd"><svg t="1722493485328" class="icon" viewBox="0 0 1040 1024" version="1.1" xmlns="http://www.w3.org/2000/svg" p-id="14014" width="203.125" height="200" xmlns:xlink="http://www.w3.org/1999/xlink"><path d="M662.933732 1024H86.743658A86.836519 86.836519 0 0 1 0 937.26795V86.73205A86.836519 86.836519 0 0 1 86.743658 0h722.341472a86.836519 86.836519 0 0 1 86.743658 86.73205v486.358793a40.626629 40.626629 0 0 1-81.253259 0v-486.358793a5.478791 5.478791 0 0 0-5.467184-5.467183H86.743658a5.478791 5.478791 0 0 0-5.467184 5.467183v850.5359a5.467184 5.467184 0 0 0 5.467184 5.455576h576.190074a40.626629 40.626629 0 0 1 0 81.253259z" fill="#222222" p-id="14015"></path><path d="M531.814188 355.529438H194.62477a40.626629 40.626629 0 0 1 0-81.253259h337.189418a40.626629 40.626629 0 0 1 0 81.253259zM531.814188 522.14505H194.62477a40.626629 40.626629 0 0 1 0-81.253259h337.189418a40.626629 40.626629 0 0 1 0 81.253259zM803.304541 923.327212a150.318529 150.318529 0 1 1 106.348908-256.597792 150.283706 150.283706 0 0 1-106.314085 256.597792z m0-219.325761a69.01884 69.01884 0 1 0 48.844816 20.197239 68.867941 68.867941 0 0 0-48.844816-20.197239z" fill="#222222" p-id="14016"></path><path d="M999.403478 1009.792287a40.522161 40.522161 0 0 1-28.728831-11.897798L852.149357 879.357591a40.649845 40.649845 0 0 1 57.504092-57.469269l118.490467 118.52529a40.626629 40.626629 0 0 1-28.740438 69.378675z" fill="#222222" p-id="14017"></path></svg>