<?xml version="1.0" standalone="no"?><!DOCTYPE svg PUBLIC "-//W3C//DTD SVG 1.1//EN" "http://www.w3.org/Graphics/SVG/1.1/DTD/svg11.dtd"><svg t="1722495020357" class="icon" viewBox="0 0 1024 1024" version="1.1" xmlns="http://www.w3.org/2000/svg" p-id="28340" xmlns:xlink="http://www.w3.org/1999/xlink" width="200" height="200"><path d="M902.71279719 32.064995H124.72343375A91.75611937 91.75611937 0 0 0 32.14343187 124.40088406v586.90960969a92.39691656 92.39691656 0 0 0 92.58000188 96.08913188h159.31449938v132.88922531a50.47044281 50.47044281 0 0 0 51.87409406 51.69100968 65.81907187 65.81907187 0 0 0 37.19677781-14.92143093l170.23857281-169.65880406h355.673205a92.03074687 92.03074687 0 0 0 65.697015-26.82195844 91.0848075 91.0848075 0 0 0 26.88298688-65.45290125V124.40088406A86.53819594 86.53819594 0 0 0 902.71279719 32.064995z m-293.36326219 527.89519969H222.5823875a47.99879438 47.99879438 0 0 1 0-95.96707594h386.79766125a47.99879438 47.99879438 0 0 1 0 95.96707594z m189.95072906-191.96466469H224.59632313a47.3274825 47.3274825 0 0 1-34.78615782-13.57880719 46.25948719 46.25948719 0 0 1-13.73137781-34.41998812 49.00576219 49.00576219 0 0 1 48.45650719-47.96828063h574.76496937a49.00576219 49.00576219 0 0 1 48.57856406 47.99879532 46.25948719 46.25948719 0 0 1-13.73137781 34.41998718 47.3274825 47.3274825 0 0 1-34.78615781 13.57880719z" fill="#333333" p-id="28341"></path></svg>