<?xml version="1.0" standalone="no"?><!DOCTYPE svg PUBLIC "-//W3C//DTD SVG 1.1//EN" "http://www.w3.org/Graphics/SVG/1.1/DTD/svg11.dtd"><svg t="1722479163817" class="icon" viewBox="0 0 1024 1024" version="1.1" xmlns="http://www.w3.org/2000/svg" p-id="15310" xmlns:xlink="http://www.w3.org/1999/xlink" width="200" height="200"><path d="M968.145455 232.727273v-11.636364L577.163636 118.690909 51.2 183.854545v11.636364l337.454545 141.963636L968.145455 232.727273zM551.563636 139.636364l18.618182-11.636364 214.109091 62.836364v32.581818h-37.236364l-6.981818-2.327273v2.327273L465.454545 286.254545l-20.945454-13.963636v-23.272727l223.418182-48.872727-114.036364-34.909091V139.636364zM209.454545 181.527273l32.581819-6.981818-4.654546-2.327273 286.254546-44.218182 23.272727 13.963636v23.272728L300.218182 193.163636l132.654545 48.872728v34.909091l-32.581818 6.981818L209.454545 211.781818V181.527273z" p-id="15311"></path><path d="M421.236364 267.636364v-16.290909L244.363636 186.181818l-23.272727 4.654546v11.636363l179.2 69.818182zM737.745455 188.509091l-162.909091-48.872727-11.636364 6.981818v9.309091l128 37.236363 25.6-4.654545zM535.272727 153.6v-6.981818l-13.963636-6.981818-244.363636 37.236363 11.636363 6.981818zM751.709091 209.454545h23.272727v-11.636363l-34.909091-9.309091v18.618182zM716.8 200.145455h-2.327273l13.963637 4.654545v-4.654545zM456.145455 256v9.309091l11.636363 6.981818 256-58.181818-32.581818-9.309091zM81.454545 267.636364v53.527272l179.2 88.436364v-62.836364zM884.363636 302.545455l-337.454545 60.50909v69.818182L884.363636 365.381818z" p-id="15312"></path><path d="M975.127273 244.363636L388.654545 349.090909h-2.327272L46.545455 204.8l-20.945455 11.636364 4.654545 81.454545 20.945455 20.945455 18.618182 9.309091v-79.127273l202.472727 90.763636v88.436364l148.945455 72.145454 4.654545 200.145455-174.545454 44.218182-2.327273 20.945454 190.836363 139.636364 309.527273-97.745455 2.327273-23.272727-181.527273-104.727273v-181.527272l76.8-13.963637 2.327273-55.854545 316.509091-62.836364 27.927273-18.618182 4.654545-88.436363-23.272727-13.963637zM572.509091 723.781818l32.581818 23.272727-130.327273 34.909091-79.127272-48.872727 6.981818-9.309091 74.472727 46.545455 100.072727-27.927273-13.963636-9.309091 9.309091-9.309091z m325.818182-349.090909L535.272727 446.836364v-93.090909l363.054546-65.163637v86.109091zM69.818182 328.145455l202.472727 100.072727L69.818182 328.145455z" p-id="15313"></path></svg>