<?xml version="1.0" standalone="no"?><!DOCTYPE svg PUBLIC "-//W3C//DTD SVG 1.1//EN" "http://www.w3.org/Graphics/SVG/1.1/DTD/svg11.dtd"><svg t="1722583774946" class="icon" viewBox="0 0 1024 1024" version="1.1" xmlns="http://www.w3.org/2000/svg" p-id="7472" xmlns:xlink="http://www.w3.org/1999/xlink" width="200" height="200"><path d="M763.306667 380.544c-1.536-1.344-39.253333-33.685333-102.101334-33.685333-62.805333 0-100.544 32.341333-102.101333 33.685333a13.504 13.504 0 0 0-4.608 10.133333v202.730667c0 7.445333 6.037333 13.525333 13.546667 13.525333h28.714666l17.386667 210.88a13.461333 13.461333 0 0 0 13.461333 12.416c0.362667 0 0.789333 0 1.130667-0.085333 7.466667-0.64 57.514667-0.64 64.96 0 0.341333 0.085333 0.768 0.085333 1.130667 0.085333 6.954667 0 12.842667-5.333333 13.461333-12.416l17.386667-210.88h28.8a13.546667 13.546667 0 0 0 13.525333-13.525333v-202.730667a13.824 13.824 0 0 0-4.693333-10.133333z m-102.101334-56.384a66.133333 66.133333 0 0 0 66.090667-66.069333A66.133333 66.133333 0 0 0 661.205333 192a66.133333 66.133333 0 0 0-66.069333 66.090667 66.133333 66.133333 0 0 0 66.069333 66.069333z m-194.986666 62.976c-0.490667-1.642667-11.968-40.213333-74.88-40.213333-62.805333 0-74.368 38.570667-74.794667 40l-59.989333 202.453333a13.525333 13.525333 0 0 0 12.970666 17.365333h57.429334l17.386666 210.56a13.461333 13.461333 0 0 0 13.461334 12.437334l67.157333 0.064c6.954667 0 12.821333-5.333333 13.461333-12.416l17.386667-210.581334h57.429333a13.44 13.44 0 0 0 10.837334-5.461333 13.482667 13.482667 0 0 0 2.133333-11.925333l-59.989333-202.282667z m-74.88-62.762667a66.133333 66.133333 0 0 0 66.026666-66.005333 66.133333 66.133333 0 0 0-66.026666-66.005333 66.133333 66.133333 0 0 0-66.005334 66.005333 66.069333 66.069333 0 0 0 66.005334 66.005333z" fill="#2c2c2c" p-id="7473"></path></svg>